# xmcd
#
# Track frame offsets:
#	150
#	12158
#	22626
#	40929
#	56626
#	69686
#	84142
#	101762
#	114786
#	130404
#	144416
#	159912
#	171734
#	184357
#	203522
#	217736
#
# Disc length: 3076 seconds
#
# Revision: 1
# Processed by: cddbd v1.5.2PL0 Copyright (c) Steve Scherf et al.
# Submitted via: audiograbber 1.83.01
#
DISCID=ce0c0210
DTITLE=THE CEDAR CREEK BAND - THE CEDAR CREEK BAND
DYEAR=2001
DGENRE=Country
TTITLE0=How The West Was Won
TTITLE1=Keys In The Mailbox
TTITLE2=Song For The Life
TTITLE3=Cute Little Waitress
TTITLE4=High Cotton
TTITLE5=Sioux City Sue
TTITLE6=Together Again
TTITLE7=Right Or Wrong
TTITLE8=Night Time's The Right Time
TTITLE9=Idol Of The Band
TTITLE10=Jukebox In My Mind
TTITLE11=Lovebug
TTITLE12=Honky Tonk Blues
TTITLE13=Country Sweetheart
TTITLE14=My Shoes Keep Walking Back
TTITLE15=Waiting For The Rain
EXTD=
EXTT0=
EXTT1=
EXTT2=
EXTT3=
EXTT4=
EXTT5=
EXTT6=
EXTT7=
EXTT8=
EXTT9=
EXTT10=
EXTT11=
EXTT12=
EXTT13=
EXTT14=
EXTT15=
PLAYORDER=
